# xmcd
#
# Track frame offsets:
#	150
#	20201
#	37423
#	52989
#	65664
#	78345
#	91522
#	103470
#	115718
#	128325
#	142328
#	157731
#	176273
#	190870
#	209924
#	227654
#	240138
#	253816
#	261898
#	274967
#
# Disc length: 3824 seconds
#
# Revision: 0
# Processed by: cddbd v1.5.2PL0 Copyright (c) Steve Scherf et al.
# Submitted via: EasyCDDAExtractor 2010.4.0.0
#
DISCID=1d0eee14
DTITLE=Various Artist - Les stars du country
DYEAR=2009
DGENRE=Country
TTITLE0=Patrick Normand - Quand on est en amour
TTITLE1=Richard Huet - Je crois en l'amour
TTITLE2=Renée Martel - Un amour qui ne veut pas mourir
TTITLE3=Marie King - Quand le soleil dit bonjour aux montagnes
TTITLE4=Bobby Hachey - Ma petite maison
TTITLE5=Georges Hamel - Je vois que tu t'en vas
TTITLE6=Marcel Martel - Ton coeur est froid
TTITLE7=Paul Brunelle - Je chante en me réveillant
TTITLE8=Chantal et Réjean Massé - L'hôtel et la boisson
TTITLE9=André Breton - Merci mon Dieu
TTITLE10=Renée Martel et Patrick Normand - Nous
TTITLE11=Lévis Bouliane - Ces belles années
TTITLE12=Marcel Martel - Bonsoir chérie
TTITLE13=Normand Grenier - Danse pour moi
TTITLE14=Véronique et Roger Gravel - Je dis des mots d'amour
TTITLE15=Léo Benoit - Tu sais que je t'aime
TTITLE16=Paul Brunelle - Mon enfant je te pardonne
TTITLE17=Roger Miron - À qui le p'tit coeur après neuf heures
TTITLE18=Paul Brunelle - Le cowboy des montagnes
TTITLE19=Marcel Martel - Tu dis que tu m'aimes
EXTD=
EXTT0=
EXTT1=
EXTT2=
EXTT3=
EXTT4=
EXTT5=
EXTT6=
EXTT7=
EXTT8=
EXTT9=
EXTT10=
EXTT11=
EXTT12=
EXTT13=
EXTT14=
EXTT15=
EXTT16=
EXTT17=
EXTT18=
EXTT19=
PLAYORDER=
